<svg width="34" height="34" viewBox="0 0 34 34" fill="none" xmlns="http://www.w3.org/2000/svg">
<path d="M20.75 13.6667V25.3333M13.25 13.6667V25.3333M5.75 7V26.6667C5.75 28.5335 5.75 29.4663 6.15873 30.1793C6.51825 30.8065 7.09151 31.3175 7.79712 31.637C8.5985 32 9.64811 32 11.7442 32H22.2558C24.3519 32 25.4 32 26.2014 31.637C26.907 31.3175 27.4821 30.8065 27.8417 30.1793C28.25 29.467 28.25 28.535 28.25 26.6718V7M5.75 7H9.5M5.75 7H2M9.5 7H24.5M9.5 7C9.5 5.44686 9.5 4.67068 9.78545 4.05811C10.1661 3.24135 10.8956 2.59205 11.8145 2.25373C12.5036 2 13.3777 2 15.125 2H18.875C20.6223 2 21.4959 2 22.1851 2.25373C23.1039 2.59205 23.8338 3.24135 24.2144 4.05811C24.4998 4.67067 24.5 5.44686 24.5 7M24.5 7H28.25M28.25 7H32" stroke="#624699" stroke-width="3" stroke-linecap="round" stroke-linejoin="round"/>
</svg>
